<svg width="24" height="24" viewBox="0 0 24 24" fill="none" xmlns="http://www.w3.org/2000/svg">
<g clip-path="url(#clip0)">
<path d="M13.1786 1.5C10.6789 1.50295 8.28238 2.49726 6.51482 4.26482C4.74726 6.03238 3.75295 8.42886 3.75 10.9286C3.74701 12.9713 4.41427 14.9587 5.64943 16.5857C5.64943 16.5857 5.90657 16.9243 5.94857 16.9731L13.1786 25.5L20.412 16.9689C20.4497 16.9234 20.7077 16.5857 20.7077 16.5857L20.7086 16.5831C21.9431 14.9568 22.6101 12.9704 22.6071 10.9286C22.6042 8.42886 21.6099 6.03238 19.8423 4.26482C18.0748 2.49726 15.6783 1.50295 13.1786 1.5V1.5ZM14.0357 15.2143H12.3214V13.5H14.0357V15.2143ZM14.0357 11.7857H12.3214V10.0714H14.0357V11.7857ZM17.4643 15.2143H15.75V8.35714H10.6071V15.2143H8.89286V8.35714C8.89331 7.90263 9.07407 7.46685 9.39546 7.14546C9.71685 6.82407 10.1526 6.64331 10.6071 6.64286H15.75C16.2045 6.64331 16.6403 6.82407 16.9617 7.14546C17.2831 7.46685 17.4638 7.90263 17.4643 8.35714V15.2143Z" fill="#007BFF"/>
</g>
<defs>
<clipPath id="clip0">
<rect width="24" height="24" fill="white"/>
</clipPath>
</defs>
</svg>
