<svg width="31" height="31" viewBox="0 0 31 31" fill="none" xmlns="http://www.w3.org/2000/svg">
<path d="M15.5 3.875C22.6042 3.875 28.4167 8.49917 28.4167 14.2083C28.4167 14.9575 28.3133 15.6808 28.1325 16.3783C27.3704 15.9908 26.5438 15.7067 25.6783 15.5775C25.7817 15.1383 25.8333 14.6733 25.8333 14.2083C25.8333 9.93292 21.2092 6.45833 15.5 6.45833C9.79084 6.45833 5.16668 9.93292 5.16668 14.2083C5.16668 18.4838 9.79084 21.9583 15.5 21.9583L16.9079 21.8938L16.7917 23.25L16.895 24.4771L15.5 24.5417C13.9629 24.5417 12.4258 24.3221 10.9404 23.8958C8.57668 25.8333 5.64459 26.9829 2.58334 27.125C5.59293 24.1154 6.13543 22.0875 6.13543 21.3125C5.05677 20.463 4.17906 19.3857 3.56502 18.1576C2.95099 16.9295 2.61578 15.581 2.58334 14.2083C2.58334 8.49917 8.39584 3.875 15.5 3.875ZM23.25 18.0833H25.8333V21.9583H29.7083V24.5417H25.8333V28.4167H23.25V24.5417H19.375V21.9583H23.25V18.0833Z" fill="black"/>
</svg>
