<svg width="16" height="16" viewBox="0 0 16 16" fill="none" xmlns="http://www.w3.org/2000/svg">
<path d="M1.75 2.00002H6.75C6.75 1.6464 6.8817 1.30726 7.11612 1.05721C7.35054 0.807163 7.66848 0.666687 8 0.666687C8.33152 0.666687 8.64946 0.807163 8.88388 1.05721C9.1183 1.30726 9.25 1.6464 9.25 2.00002H14.25V3.33335H13.625V10.6667H10.0312L11.125 14.6667H9.875L8.78125 10.6667H7.21875L6.125 14.6667H4.875L5.96875 10.6667H2.375V3.33335H1.75V2.00002ZM3.625 3.33335V9.33335H12.375V3.33335H3.625ZM7.90625 7.90002C7.87789 7.93142 7.84392 7.95644 7.80635 7.97361C7.76878 7.99079 7.72837 7.99977 7.6875 8.00002C7.60462 8.00002 7.52513 7.9649 7.46653 7.90239C7.40792 7.83988 7.375 7.75509 7.375 7.66669V5.00002C7.375 4.91161 7.40792 4.82683 7.46653 4.76432C7.52513 4.70181 7.60462 4.66669 7.6875 4.66669C7.775 4.66669 7.85 4.70669 7.90625 4.76669L8.78125 5.69335C8.98125 5.90669 9.18125 6.12002 9.18125 6.33335C9.18125 6.54669 8.98125 6.76002 8.78125 6.97335L7.90625 7.90002Z" fill="white"/>
</svg>
