<svg width="24" height="24" viewBox="0 0 24 24" fill="none" xmlns="http://www.w3.org/2000/svg">
<path d="M9.49143 13.36L12.1429 11.3486L14.7829 13.36L13.7771 10.1029L16.4286 8H13.1829L12.1429 4.78857L11.1029 8H7.85714L10.4971 10.1029L9.49143 13.36ZM21.2857 9.14286C21.2857 4.09143 17.1943 0 12.1429 0C7.09143 0 3 4.09143 3 9.14286C3 11.4629 3.86857 13.5657 5.28571 15.1771V24L12.1429 21.7143L19 24V15.1771C20.4736 13.5126 21.2867 11.366 21.2857 9.14286ZM12.1429 2.28571C15.9257 2.28571 19 5.36 19 9.14286C19 12.9257 15.9257 16 12.1429 16C8.36 16 5.28571 12.9257 5.28571 9.14286C5.28571 5.36 8.36 2.28571 12.1429 2.28571Z" fill="#007BFF"/>
</svg>
