<svg width="32" height="24" viewBox="0 0 32 24" fill="none" xmlns="http://www.w3.org/2000/svg">
<path d="M23.9333 17.9869H27.8852V8.49811L23.4328 4.0458L20.6383 6.84025L23.9333 10.1352V17.9868V17.9869ZM27.8957 19.968H14.111L10.8159 16.6732L12.2132 15.2759L14.9347 17.9974H20.534L15.0181 12.471L16.4258 11.0634L21.9417 16.5794V10.9798L19.2307 8.26881L20.6174 6.88191L13.7669 0H0.00292969L3.9444 3.94147V3.95192H12.1193L15.0077 6.84025L10.7846 11.0633L7.89632 8.17492V5.9331H3.9444V9.81202L10.7846 16.6523L8.00053 19.4363L12.453 23.8887H31.8371L27.8957 19.968Z" fill="#007BFF"/>
</svg>
